<svg xmlns="http://www.w3.org/2000/svg" viewBox="0 0 280 200">
  <rect fill="#DC143C" width="280" height="200"/>
  <!-- 黑色三角形 -->
  <polygon fill="#1a1a1a" points="0,0 0,200 140,100"/>
  <!-- 黄色三角形 -->
  <polygon fill="#FFD700" points="0,0 140,0 70,100"/>
  <!-- 白色星星 -->
  <polygon fill="white" points="70,60 74,72 87,72 77,80 81,93 70,85 59,93 63,80 53,72 66,72"/>
  <!-- 庆祝人群 -->
  <ellipse fill="#DEB887" cx="180" cy="150" rx="8" ry="10"/>
  <path fill="#4169E1" d="M172,160 L188,160 L190,200 L170,200 Z"/>
  <ellipse fill="#DEB887" cx="230" cy="145" rx="8" ry="10"/>
  <path fill="#228B22" d="M222,155 L238,155 L240,195 L220,195 Z"/>
  <!-- 标题 -->
  <rect fill="rgba(220,20,60,0.85)" x="10" y="175" width="90" height="22" rx="4"/>
  <text x="55" y="190" text-anchor="middle" fill="white" font-size="11" font-family="sans-serif">独立日</text>
</svg>