<svg xmlns="http://www.w3.org/2000/svg" viewBox="0 0 280 200">
  <rect fill="#87CEEB" width="280" height="200"/>
  <!-- 远山 -->
  <polygon fill="#228B22" points="0,200 50,140 100,180 150,110 200,160 250,130 280,150 280,200"/>
  <!-- 塔銮 -->
  <polygon fill="#FFD700" points="140,30 110,70 170,70"/>
  <rect fill="#DAA520" x="115" y="70" width="50" height="40"/>
  <polygon fill="#FFD700" points="115,70 140,50 165,70"/>
  <rect fill="#B8860B" x="105" y="110" width="70" height="30"/>
  <rect fill="#8B7355" x="95" y="140" width="90" height="40"/>
  <!-- 小塔 -->
  <polygon fill="#FFD700" points="60,80 50,100 70,100"/>
  <rect fill="#DAA520" x="52" y="100" width="16" height="30"/>
  <polygon fill="#FFD700" points="220,80 210,100 230,100"/>
  <rect fill="#DAA520" x="212" y="100" width="16" height="30"/>
  <!-- 柱子 -->
  <rect fill="#FFD700" x="125" y="180" width="30" height="15"/>
  <!-- 标题 -->
  <rect fill="rgba(218,165,32,0.85)" x="10" y="10" width="50" height="25" rx="4"/>
  <text x="35" y="27" text-anchor="middle" fill="white" font-size="12" font-family="sans-serif">塔銮</text>
</svg>