<svg xmlns="http://www.w3.org/2000/svg" viewBox="0 0 280 200">
  <rect fill="#87CEEB" width="280" height="200"/>
  <!-- 远山 -->
  <polygon fill="#6B8E6B" points="0,200 60,140 120,180 180,120 240,160 280,140 280,200"/>
  <!-- 圣索菲亚大教堂 -->
  <ellipse fill="#DC143C" cx="140" cy="80" rx="50" ry="30"/>
  <path fill="#B22222" d="M90,80 Q140,40 190,80"/>
  <!-- 尖塔 -->
  <rect fill="#FFD700" x="138" y="30" width="4" height="20"/>
  <ellipse fill="#FFD700" cx="140" cy="30" rx="5" ry="8"/>
  <!-- 主体 -->
  <rect fill="#F5F5DC" x="80" y="80" width="120" height="80"/>
  <rect fill="#E8E8D0" x="90" y="90" width="100" height="60"/>
  <!-- 拱门 -->
  <path fill="#8B4513" d="M115,160 L115,120 Q140,100 165,120 L165,160 Z"/>
  <!-- 宣礼塔 -->
  <rect fill="#F5F5DC" x="45" y="50" width="12" height="110"/>
  <ellipse fill="#F5F5DC" cx="51" cy="45" rx="8" ry="10"/>
  <rect fill="#F5F5DC" x="223" y="50" width="12" height="110"/>
  <ellipse fill="#F5F5DC" cx="229" cy="45" rx="8" ry="10"/>
  <!-- 标题 -->
  <rect fill="rgba(220,20,60,0.85)" x="10" y="10" width="90" height="25" rx="4"/>
  <text x="55" y="27" text-anchor="middle" fill="white" font-size="12" font-family="sans-serif">圣索菲亚</text>
</svg>