<svg xmlns="http://www.w3.org/2000/svg" viewBox="0 0 280 200">
  <rect fill="#87CEEB" width="280" height="200"/>
  <!-- 草地 -->
  <rect fill="#90EE90" y="150" width="280" height="50"/>
  <!-- 水牛 -->
  <ellipse fill="#4A4A4A" cx="130" cy="120" rx="50" ry="30"/>
  <ellipse fill="#5A5A5A" cx="130" cy="115" rx="45" ry="25"/>
  <!-- 牛角 -->
  <path fill="#3A3A3A" d="M85,100 Q70,85 75,75"/>
  <path fill="#3A3A3A" d="M175,100 Q190,85 185,75"/>
  <!-- 牛腿 -->
  <rect fill="#3A3A3A" x="95" y="140" width="10" height="25"/>
  <rect fill="#3A3A3A" x="115" y="140" width="10" height="25"/>
  <rect fill="#3A3A3A" x="145" y="140" width="10" height="25"/>
  <rect fill="#3A3A3A" x="165" y="140" width="10" height="25"/>
  <!-- 骑牛儿童 -->
  <ellipse fill="#DEB887" cx="130" cy="85" rx="10" ry="12"/>
  <path fill="#4169E1" d="M120,97 L140,97 L145,125 L115,125 Z"/>
  <!-- 斗笠 -->
  <path fill="#DAA520" d="M115,75 Q130,55 145,75 Q130,70 115,75"/>
  <!-- 牧童吹笛 -->
  <rect fill="#8B4513" x="145" y="82" width="25" height="4" rx="1"/>
  <!-- 标题 -->
  <rect fill="rgba(74,74,74,0.85)" x="10" y="10" width="70" height="25" rx="4"/>
  <text x="45" y="27" text-anchor="middle" fill="white" font-size="12" font-family="sans-serif">牧童骑牛</text>
</svg>