<svg xmlns="http://www.w3.org/2000/svg" viewBox="0 0 140 110">
  <defs>
    <linearGradient id="bg10" x1="0%" y1="0%" x2="0%" y2="100%">
      <stop offset="0%" style="stop-color:#BF360C"/>
      <stop offset="100%" style="stop-color:#FF8A65"/>
    </linearGradient>
  </defs>
  <rect fill="url(#bg10)" width="140" height="110"/>
  <!-- 篝火 -->
  <ellipse fill="#FF5722" cx="70" cy="75" rx="25" ry="8"/>
  <path fill="#FFEB3B" d="M55,75 Q50,50 70,40 Q90,50 85,75"/>
  <path fill="#FF9800" d="M60,75 Q55,55 70,48 Q85,55 80,75"/>
  <path fill="#FFEB3B" d="M65,75 Q63,60 70,55 Q77,60 75,75"/>
  <!-- 人物剪影 -->
  <circle fill="#37474F" cx="35" cy="65" r="8"/>
  <rect fill="#37474F" x="28" y="73" width="14" height="20" rx="2"/>
  <circle fill="#37474F" cx="105" cy="65" r="8"/>
  <rect fill="#37474F" x="98" y="73" width="14" height="20" rx="2"/>
  <rect fill="rgba(0,0,0,0.5)" x="10" y="92" width="50" height="16" rx="2"/>
  <text x="35" y="104" text-anchor="middle" fill="white" font-size="8" font-family="sans-serif">篝火节</text>
</svg>
