<svg xmlns="http://www.w3.org/2000/svg" viewBox="0 0 280 200">
  <rect fill="#87CEEB" width="280" height="200"/>
  <!-- 远山 -->
  <polygon fill="#D2B48C" points="0,200 50,150 100,180 160,130 220,170 280,140 280,200"/>
  <!-- 萨迈拉螺旋塔 -->
  <path fill="#DAA520" d="M140,180 L140,60 L145,60 L145,180"/>
  <ellipse fill="#CD853F" cx="142" cy="60" rx="8" ry="5"/>
  <!-- 螺旋楼梯 -->
  <path fill="none" stroke="#8B4513" stroke-width="4" d="M130,170 Q120,150 130,140 Q140,130 150,140 Q160,150 150,160 Q140,170 130,160"/>
  <!-- 底座 -->
  <rect fill="#A0522D" x="110" y="170" width="60" height="20"/>
  <rect fill="#8B4513" x="100" y="185" width="80" height="15"/>
  <!-- 棕榈树 -->
  <rect fill="#8B4513" x="50" y="100" width="8" height="80"/>
  <ellipse fill="#228B22" cx="54" cy="95" rx="20" ry="10"/>
  <rect fill="#8B4513" x="225" y="110" width="8" height="70"/>
  <ellipse fill="#228B22" cx="229" cy="105" rx="18" ry="9"/>
  <!-- 标题 -->
  <rect fill="rgba(218,165,32,0.85)" x="10" y="10" width="90" height="25" rx="4"/>
  <text x="55" y="27" text-anchor="middle" fill="white" font-size="12" font-family="sans-serif">螺旋塔</text>
</svg>