<svg xmlns="http://www.w3.org/2000/svg" viewBox="0 0 280 200">
  <rect fill="#87CEEB" width="280" height="200"/>
  <!-- 海洋 -->
  <rect fill="#4169E1" opacity="0.5" y="150" width="280" height="50"/>
  <!-- 清真寺 -->
  <ellipse fill="#F5F5F5" cx="140" cy="90" rx="50" ry="30"/>
  <path fill="#E8E8E8" d="M90,90 Q140,40 190,90"/>
  <!-- 金顶 -->
  <polygon fill="#FFD700" points="140,45 125,60 155,60"/>
  <circle fill="#FFD700" cx="140" cy="45" r="8"/>
  <!-- 宣礼塔 -->
  <rect fill="#F5F5F5" x="70" y="90" width="15" height="60"/>
  <ellipse fill="#F5F5F5" cx="77" cy="85" rx="10" ry="12"/>
  <rect fill="#F5F5F5" x="195" y="90" width="15" height="60"/>
  <ellipse fill="#F5F5F5" cx="202" cy="85" rx="10" ry="12"/>
  <!-- 棕榈树 -->
  <rect fill="#8B4513" x="30" y="100" width="8" height="60"/>
  <ellipse fill="#228B22" cx="34" cy="95" rx="20" ry="10"/>
  <rect fill="#8B4513" x="245" y="105" width="8" height="55"/>
  <ellipse fill="#228B22" cx="249" cy="100" rx="18" ry="9"/>
  <!-- 太阳 -->
  <circle fill="#FFD700" cx="220" cy="30" r="20"/>
  <!-- 标题 -->
  <rect fill="rgba(65,105,225,0.85)" x="10" y="175" width="70" height="22" rx="4"/>
  <text x="55" y="190" text-anchor="middle" fill="white" font-size="11" font-family="sans-serif">独立日</text>
</svg>