<svg xmlns="http://www.w3.org/2000/svg" viewBox="0 0 280 200">
  <rect fill="#1a1a2e" width="280" height="200"/>
  <!-- 月亮 -->
  <circle fill="#FFD700" opacity="0.9" cx="220" cy="50" r="30"/>
  <!-- 寺庙 -->
  <polygon fill="#FFD700" points="140,60 90,100 190,100"/>
  <rect fill="#DAA520" x="100" y="100" width="80" height="60"/>
  <!-- 门 -->
  <rect fill="#8B4513" x="125" y="115" width="30" height="45"/>
  <!-- 蜡烛 -->
  <rect fill="#F5F5DC" x="70" y="140" width="8" height="20"/>
  <ellipse fill="#FFD700" cx="74" cy="135" rx="4" ry="6"/>
  <rect fill="#F5F5DC" x="200" y="140" width="8" height="20"/>
  <ellipse fill="#FFD700" cx="204" cy="135" rx="4" ry="6"/>
  <!-- 人们点蜡烛 -->
  <ellipse fill="#DEB887" cx="85" cy="150" rx="6" ry="8"/>
  <path fill="#4169E1" d="M79,158 L91,158 L93,180 L77,180 Z"/>
  <ellipse fill="#DEB887" cx="195" cy="150" rx="6" ry="8"/>
  <path fill="#DC143C" d="M189,158 L201,158 L203,180 L187,180 Z"/>
  <!-- 星星 -->
  <circle fill="#FFD700" cx="40" cy="40" r="2"/>
  <circle fill="#FFD700" cx="100" cy="30" r="1.5"/>
  <circle fill="#FFD700" cx="180" cy="35" r="2"/>
  <!-- 标题 -->
  <rect fill="rgba(218,165,32,0.85)" x="10" y="175" width="90" height="22" rx="4"/>
  <text x="55" y="190" text-anchor="middle" fill="white" font-size="11" font-family="sans-serif">塔銮节</text>
</svg>