<svg xmlns="http://www.w3.org/2000/svg" viewBox="0 0 280 200">
  <rect fill="#4169E1" opacity="0.2" width="280" height="200"/>
  <!-- 草原 -->
  <rect fill="#228B22" y="140" width="280" height="60"/>
  <!-- 天空 -->
  <rect fill="#87CEEB" width="280" height="140"/>
  <!-- 毡房 -->
  <ellipse fill="#F5F5DC" cx="140" cy="120" rx="50" ry="25"/>
  <path fill="#E8E8D0" d="M90,120 Q140,60 190,120"/>
  <!-- 门 -->
  <rect fill="#8B4513" x="130" y="110" width="20" height="20"/>
  <!-- 装饰 -->
  <ellipse fill="#DAA520" cx="140" cy="95" rx="25" ry="8"/>
  <!-- 马匹 -->
  <ellipse fill="#8B4513" cx="60" cy="160" rx="20" ry="12"/>
  <ellipse fill="#A0522D" cx="55" cy="145" rx="8" ry="10"/>
  <line x1="50" y1="165" x2="45" y2="185" stroke="#8B4513" stroke-width="3"/>
  <line x1="55" y1="165" x2="50" y2="185" stroke="#8B4513" stroke-width="3"/>
  <line x1="65" y1="165" x2="60" y2="185" stroke="#8B4513" stroke-width="3"/>
  <line x1="75" y1="165" x2="70" y2="185" stroke="#8B4513" stroke-width="3"/>
  <!-- 云朵 -->
  <ellipse fill="white" opacity="0.8" cx="50" cy="40" rx="25" ry="12"/>
  <ellipse fill="white" opacity="0.8" cx="230" cy="35" rx="20" ry="10"/>
  <!-- 太阳 -->
  <circle fill="#FFD700" cx="220" cy="60" r="20"/>
  <!-- 标题 -->
  <rect fill="rgba(65,105,225,0.85)" x="10" y="10" width="70" height="25" rx="4"/>
  <text x="45" y="27" text-anchor="middle" fill="white" font-size="12" font-family="sans-serif">草原毡房</text>
</svg>