<svg xmlns="http://www.w3.org/2000/svg" viewBox="0 0 140 110">
  <defs>
    <linearGradient id="bg" x1="0%" y1="0%" x2="100%" y2="100%">
      <stop offset="0%" style="stop-color:#8B4513"/>
      <stop offset="100%" style="stop-color:#A0522D"/>
    </linearGradient>
  </defs>
  <rect fill="url(#bg)" width="140" height="110" rx="8"/>
  <!-- 沙嗲串 -->
  <rect x="20" y="48" width="100" height="4" fill="#8B4513" transform="rotate(5 70 50)"/>
  <rect x="20" y="58" width="100" height="4" fill="#8B4513" transform="rotate(-3 70 60)"/>
  <rect x="20" y="68" width="100" height="4" fill="#8B4513" transform="rotate(2 70 70)"/>
  <!-- 肉串 -->
  <rect x="40" y="42" width="12" height="15" fill="#D2691E" rx="2"/>
  <rect x="55" y="44" width="12" height="14" fill="#CD853F" rx="2"/>
  <rect x="70" y="42" width="12" height="15" fill="#D2691E" rx="2"/>
  <rect x="40" y="52" width="12" height="14" fill="#CD853F" rx="2"/>
  <rect x="55" y="54" width="12" height="15" fill="#D2691E" rx="2"/>
  <rect x="70" y="52" width="12" height="14" fill="#CD853F" rx="2"/>
  <rect x="40" y="62" width="12" height="15" fill="#CD853F" rx="2"/>
  <rect x="55" y="64" width="12" height="14" fill="#D2691E" rx="2"/>
  <rect x="70" y="62" width="12" height="15" fill="#CD853F" rx="2"/>
  <!-- 标签 -->
  <text x="70" y="100" text-anchor="middle" fill="white" font-size="10">沙嗲</text>
</svg>