<svg xmlns="http://www.w3.org/2000/svg" viewBox="0 0 140 110">
  <defs>
    <linearGradient id="sky9" x1="0%" y1="0%" x2="0%" y2="100%">
      <stop offset="0%" style="stop-color:#7986CB"/>
      <stop offset="100%" style="stop-color:#C5CAE9"/>
    </linearGradient>
  </defs>
  <rect fill="url(#sky9)" width="140" height="110"/>
  <!-- 雪山 -->
  <polygon fill="#FFFFFF" points="30,90 50,30 70,90"/>
  <polygon fill="#E0E0E0" points="50,90 70,30 90,90"/>
  <polygon fill="#FFFFFF" points="70,90 95,35 120,90"/>
  <!-- 喜马拉雅标志 -->
  <polygon fill="#FFD700" points="70,25 75,35 85,35 77,42 80,52 70,46 60,52 63,42 55,35 65,35"/>
  <!-- 佛塔 -->
  <ellipse fill="#FFFFFF" cx="35" cy="75" rx="12" ry="8"/>
  <rect fill="#FFFFFF" x="30" y="55" width="10" height="20"/>
  <polygon fill="#FFD700" points="35,55 40,45 30,45"/>
  <rect fill="rgba(0,0,0,0.5)" x="10" y="92" width="50" height="16" rx="2"/>
  <text x="35" y="104" text-anchor="middle" fill="white" font-size="8" font-family="sans-serif">喜马拉雅</text>
</svg>
