<svg xmlns="http://www.w3.org/2000/svg" viewBox="0 0 280 200">
  <rect fill="#FFF8DC" width="280" height="200"/>
  <!-- 大盘 -->
  <ellipse fill="#F5F5DC" cx="140" cy="140" rx="90" ry="40"/>
  <!-- 鱼汤面 -->
  <ellipse fill="#F5DEB3" cx="140" cy="130" rx="70" ry="30"/>
  <!-- 鱼肉 -->
  <ellipse fill="#DC143C" cx="120" cy="120" rx="20" ry="10"/>
  <ellipse fill="#FF6B6B" cx="118" cy="118" rx="16" ry="8"/>
  <!-- 面条 -->
  <ellipse fill="#DEB887" cx="160" cy="125" rx="25" ry="12"/>
  <!-- 香菜 -->
  <ellipse fill="#228B22" cx="100" cy="125" rx="10" ry="5"/>
  <ellipse fill="#32CD32" cx="180" cy="130" rx="8" ry="4"/>
  <!-- 辣椒粉 -->
  <ellipse fill="#FF4500" cx="140" cy="115" rx="8" ry="4"/>
  <!-- 柠檬 -->
  <ellipse fill="#32CD32" cx="200" cy="120" rx="8" ry="5"/>
  <!-- 蒸汽 -->
  <path fill="none" stroke="#E0E0E0" stroke-width="2" opacity="0.5" d="M100,100 Q105,85 100,70"/>
  <path fill="none" stroke="#E0E0E0" stroke-width="2" opacity="0.5" d="M140,95 Q145,80 140,65"/>
  <path fill="none" stroke="#E0E0E0" stroke-width="2" opacity="0.5" d="M180,100 Q185,85 180,70"/>
  <!-- 标题 -->
  <rect fill="rgba(220,20,60,0.85)" x="10" y="10" width="70" height="25" rx="4"/>
  <text x="45" y="27" text-anchor="middle" fill="white" font-size="12" font-family="sans-serif">鱼汤面</text>
</svg>