<svg xmlns="http://www.w3.org/2000/svg" viewBox="0 0 140 110">
  <defs>
    <linearGradient id="bg30" x1="0%" y1="0%" x2="0%" y2="100%">
      <stop offset="0%" style="stop-color:#1565C0"/>
      <stop offset="100%" style="stop-color:#64B5F6"/>
    </linearGradient>
  </defs>
  <rect fill="url(#bg30)" width="140" height="110"/>
  <!-- 河流 -->
  <path fill="#4FC3F7" d="M0,60 Q35,50 70,60 Q105,70 140,60 L140,90 L0,90 Z"/>
  <!-- 橡皮艇 -->
  <ellipse fill="#FF5722" cx="70" cy="58" rx="25" ry="8"/>
  <ellipse fill="#FF8A65" cx="70" cy="55" rx="20" ry="5"/>
  <!-- 划桨 -->
  <rect fill="#5D4037" x="45" y="45" width="3" height="25" transform="rotate(-30,46,57)"/>
  <ellipse fill="#8D6E63" cx="40" cy="40" rx="5" ry="8" transform="rotate(-30,40,40)"/>
  <rect fill="#5D4037" x="92" y="45" width="3" height="25" transform="rotate(30,93,57)"/>
  <ellipse fill="#8D6E63" cx="100" cy="40" rx="5" ry="8" transform="rotate(30,100,40)"/>
  <!-- 浪花 -->
  <circle fill="#FFFFFF" cx="50" cy="65" r="3"/>
  <circle fill="#FFFFFF" cx="90" cy="63" r="2"/>
  <rect fill="rgba(0,0,0,0.5)" x="10" y="92" width="50" height="16" rx="2"/>
  <text x="35" y="104" text-anchor="middle" fill="white" font-size="8" font-family="sans-serif">漂流</text>
</svg>
