<svg xmlns="http://www.w3.org/2000/svg" viewBox="0 0 140 110">
  <defs>
    <linearGradient id="sky13" x1="0%" y1="0%" x2="0%" y2="100%">
      <stop offset="0%" style="stop-color:#0288D1"/>
      <stop offset="100%" style="stop-color:#4FC3F7"/>
    </linearGradient>
  </defs>
  <rect fill="url(#sky13)" width="140" height="110"/>
  <!-- 海洋 -->
  <rect fill="#00ACC1" x="0" y="70" width="140" height="40"/>
  <!-- 清真寺 -->
  <rect fill="#FFFFFF" x="40" y="50" width="60" height="30"/>
  <!-- 金顶 -->
  <ellipse fill="#FFD700" cx="70" cy="50" rx="20" ry="12"/>
  <rect fill="#FFD700" x="67" y="35" width="6" height="15"/>
  <polygon fill="#FFD700" points="70,25 75,35 65,35"/>
  <!-- 拱门 -->
  <path fill="#0288D1" d="M55,65 Q70,55 85,65 L85,80 L55,80 Z"/>
  <!-- 宣礼塔 -->
  <rect fill="#FFFFFF" x="25" y="45" width="8" height="35"/>
  <ellipse fill="#FFD700" cx="29" cy="45" rx="4" ry="6"/>
  <rect fill="#FFFFFF" x="107" y="45" width="8" height="35"/>
  <ellipse fill="#FFD700" cx="111" cy="45" rx="4" ry="6"/>
  <rect fill="rgba(0,0,0,0.5)" x="10" y="92" width="50" height="16" rx="2"/>
  <text x="35" y="104" text-anchor="middle" fill="white" font-size="8" font-family="sans-serif">清真寺</text>
</svg>
