<svg xmlns="http://www.w3.org/2000/svg" viewBox="0 0 140 110">
  <defs>
    <linearGradient id="sky14" x1="0%" y1="0%" x2="0%" y2="100%">
      <stop offset="0%" style="stop-color:#29B6F6"/>
      <stop offset="100%" style="stop-color:#81D4FA"/>
    </linearGradient>
  </defs>
  <rect fill="url(#sky14)" width="140" height="110"/>
  <!-- 海洋 -->
  <rect fill="#00ACC1" x="0" y="60" width="140" height="50"/>
  <!-- 岛屿 -->
  <ellipse fill="#FFCC80" cx="70" cy="70" rx="50" ry="15"/>
  <!-- 棕榈树 -->
  <rect fill="#8D6E63" x="50" y="35" width="5" height="35"/>
  <ellipse fill="#4CAF50" cx="52" cy="30" rx="15" ry="8"/>
  <ellipse fill="#388E3C" cx="55" cy="25" rx="12" ry="6"/>
  <rect fill="#8D6E63" x="85" y="40" width="5" height="30"/>
  <ellipse fill="#4CAF50" cx="87" cy="35" rx="15" ry="8"/>
  <ellipse fill="#388E3C" cx="90" cy="30" rx="12" ry="6"/>
  <!-- 水上屋 -->
  <rect fill="#8D6E63" x="25" y="55" width="20" height="15"/>
  <polygon fill="#A1887F" points="25,55 35,45 45,55"/>
  <rect fill="#8D6E63" x="95" y="55" width="20" height="15"/>
  <polygon fill="#A1887F" points="95,55 105,45 115,55"/>
  <rect fill="rgba(0,0,0,0.5)" x="10" y="92" width="50" height="16" rx="2"/>
  <text x="35" y="104" text-anchor="middle" fill="white" font-size="8" font-family="sans-serif">岛屿文化</text>
</svg>
