<svg xmlns="http://www.w3.org/2000/svg" viewBox="0 0 280 200">
  <rect fill="#E3F2FD" width="280" height="200"/>
  <!-- 相扑土俵 -->
  <ellipse fill="#D2B48C" cx="140" cy="150" rx="100" ry="40"/>
  <ellipse fill="#C4A77D" cx="140" cy="145" rx="90" ry="35"/>
  <ellipse fill="#B8956E" cx="140" cy="140" rx="80" ry="30"/>
  <!-- 圆环线 -->
  <ellipse fill="none" stroke="#8B4513" stroke-width="3" cx="140" cy="145" rx="70" ry="28"/>
  <!-- 相扑选手 -->
  <ellipse fill="#DEB887" cx="110" cy="120" rx="25" ry="30"/>
  <ellipse fill="#CD853F" cx="110" cy="115" rx="22" ry="25"/>
  <ellipse fill="#FFE4C4" cx="110" cy="95" rx="12" ry="14"/>
  <!-- 兜裆布 -->
  <path fill="#DC143C" d="M95,130 L125,130 L120,160 L100,160 Z"/>
  <ellipse fill="#DEB887" cx="170" cy="120" rx="25" ry="30"/>
  <ellipse fill="#CD853F" cx="170" cy="115" rx="22" ry="25"/>
  <ellipse fill="#FFE4C4" cx="170" cy="95" rx="12" ry="14"/>
  <path fill="#1E90FF" d="M155,130 L185,130 L180,160 L160,160 Z"/>
  <!-- 屋顶装饰 -->
  <path fill="#2F4F4F" d="M20,30 L140,10 L260,30 L260,35 L140,15 L20,35 Z"/>
  <rect fill="#1a1a1a" x="130" y="35" width="20" height="25"/>
  <!-- 标题 -->
  <rect fill="rgba(220,20,60,0.85)" x="10" y="165" width="50" height="25" rx="4"/>
  <text x="35" y="182" text-anchor="middle" fill="white" font-size="12" font-family="sans-serif">相扑</text>
</svg>