<svg xmlns="http://www.w3.org/2000/svg" viewBox="0 0 280 200">
  <rect fill="#87CEEB" width="280" height="200"/>
  <!-- 雪山 -->
  <polygon fill="#F5F5F5" points="0,200 60,100 120,160 180,80 240,150 280,120 280,200"/>
  <polygon fill="#E8E8E8" points="60,100 90,140 120,160"/>
  <polygon fill="#E8E8E8" points="180,80 210,120 240,150"/>
  <!-- 伊塞克湖 -->
  <ellipse fill="#4169E1" opacity="0.6" cx="140" cy="170" rx="100" ry="25"/>
  <!-- 毡房 -->
  <ellipse fill="#F5F5DC" cx="100" cy="140" rx="35" ry="18"/>
  <path fill="#E8E8D0" d="M65,140 Q100,100 135,140"/>
  <ellipse fill="#F5F5DC" cx="180" cy="145" rx="30" ry="15"/>
  <path fill="#E8E8D0" d="M150,145 Q180,110 210,145"/>
  <!-- 太阳 -->
  <circle fill="#FFD700" cx="230" cy="40" r="25"/>
  <!-- 标题 -->
  <rect fill="rgba(65,105,225,0.85)" x="10" y="10" width="70" height="25" rx="4"/>
  <text x="45" y="27" text-anchor="middle" fill="white" font-size="12" font-family="sans-serif">伊塞克湖</text>
</svg>