<svg xmlns="http://www.w3.org/2000/svg" viewBox="0 0 280 200">
  <rect fill="#1a1a2e" width="280" height="200"/>
  <!-- 舞台灯光 -->
  <ellipse fill="#FFD700" opacity="0.3" cx="140" cy="80" rx="100" ry="50"/>
  <!-- 阿里郎表演者 -->
  <g transform="translate(60,100)">
    <ellipse fill="#FFE4C4" cx="0" cy="0" rx="8" ry="10"/>
    <path fill="#DC143C" d="M-10,10 L10,10 L15,60 L-15,60 Z"/>
  </g>
  <g transform="translate(100,105)">
    <ellipse fill="#FFE4C4" cx="0" cy="0" rx="8" ry="10"/>
    <path fill="#4169E1" d="M-10,10 L10,10 L15,60 L-15,60 Z"/>
  </g>
  <g transform="translate(140,100)">
    <ellipse fill="#FFE4C4" cx="0" cy="0" rx="8" ry="10"/>
    <path fill="#DC143C" d="M-10,10 L10,10 L15,60 L-15,60 Z"/>
  </g>
  <g transform="translate(180,105)">
    <ellipse fill="#FFE4C4" cx="0" cy="0" rx="8" ry="10"/>
    <path fill="#4169E1" d="M-10,10 L10,10 L15,60 L-15,60 Z"/>
  </g>
  <g transform="translate(220,100)">
    <ellipse fill="#FFE4C4" cx="0" cy="0" rx="8" ry="10"/>
    <path fill="#DC143C" d="M-10,10 L10,10 L15,60 L-15,60 Z"/>
  </g>
  <!-- 灯光效果 -->
  <circle fill="#FFD700" opacity="0.5" cx="60" cy="60" r="15"/>
  <circle fill="#FF6B6B" opacity="0.5" cx="140" cy="50" r="20"/>
  <circle fill="#4ECDC4" opacity="0.5" cx="220" cy="60" r="15"/>
  <!-- 标题 -->
  <rect fill="rgba(220,20,60,0.85)" x="10" y="175" width="70" height="22" rx="4"/>
  <text x="45" y="190" text-anchor="middle" fill="white" font-size="11" font-family="sans-serif">阿里郎</text>
</svg>