<svg xmlns="http://www.w3.org/2000/svg" viewBox="0 0 280 200">
  <rect fill="#87CEEB" width="280" height="200"/>
  <!-- 海洋 -->
  <rect fill="#4169E1" opacity="0.5" y="150" width="280" height="50"/>
  <!-- 山脉 -->
  <polygon fill="#228B22" points="0,200 60,120 120,170 180,100 240,160 280,130 280,200"/>
  <!-- 茅草屋 -->
  <polygon fill="#8B4513" points="100,120 60,170 140,170"/>
  <rect fill="#A0522D" x="75" y="170" width="50" height="20"/>
  <polygon fill="#DAA520" points="100,120 80,150 120,150"/>
  <polygon fill="#8B4513" points="200,130 160,180 240,180"/>
  <rect fill="#A0522D" x="175" y="180" width="50" height="15"/>
  <!-- 棕榈树 -->
  <rect fill="#8B4513" x="30" y="110" width="8" height="70"/>
  <ellipse fill="#228B22" cx="34" cy="105" rx="25" ry="12"/>
  <rect fill="#8B4513" x="250" y="115" width="8" height="65"/>
  <ellipse fill="#228B22" cx="254" cy="110" rx="22" ry="10"/>
  <!-- 太阳 -->
  <circle fill="#FFD700" cx="220" cy="40" r="25"/>
  <!-- 标题 -->
  <rect fill="rgba(34,139,34,0.85)" x="10" y="10" width="70" height="25" rx="4"/>
  <text x="45" y="27" text-anchor="middle" fill="white" font-size="12" font-family="sans-serif">传统房屋</text>
</svg>