<svg xmlns="http://www.w3.org/2000/svg" viewBox="0 0 140 110">
  <defs>
    <linearGradient id="bg12" x1="0%" y1="0%" x2="0%" y2="100%">
      <stop offset="0%" style="stop-color:#01579B"/>
      <stop offset="100%" style="stop-color:#4FC3F7"/>
    </linearGradient>
  </defs>
  <rect fill="url(#bg12)" width="140" height="110"/>
  <!-- 球场 -->
  <rect fill="#1B5E20" x="20" y="35" width="100" height="55"/>
  <!-- 中线 -->
  <rect fill="#FFFFFF" x="69" y="35" width="2" height="55"/>
  <!-- 球网 -->
  <rect fill="none" stroke="#FFFFFF" stroke-width="2" x="15" y="45" width="5" height="35"/>
  <rect fill="none" stroke="#FFFFFF" stroke-width="2" x="120" y="45" width="5" height="35"/>
  <!-- 足球 -->
  <circle fill="#FFFFFF" cx="70" cy="60" r="12"/>
  <path fill="#37474F" d="M65,52 L75,52 L78,60 L72,68 L68,68 L62,60 Z"/>
  <!-- 球员剪影 -->
  <circle fill="#37474F" cx="40" cy="55" r="6"/>
  <rect fill="#37474F" x="35" y="61" width="10" height="15" rx="2"/>
  <circle fill="#37474F" cx="100" cy="65" r="6"/>
  <rect fill="#37474F" x="95" y="71" width="10" height="15" rx="2"/>
  <rect fill="rgba(0,0,0,0.5)" x="10" y="92" width="50" height="16" rx="2"/>
  <text x="35" y="104" text-anchor="middle" fill="white" font-size="8" font-family="sans-serif">足球</text>
</svg>
