<svg xmlns="http://www.w3.org/2000/svg" viewBox="0 0 280 200">
  <rect fill="#87CEEB" width="280" height="200"/>
  <!-- 沙漠 -->
  <path fill="#D2B48C" d="M0,150 Q70,130 140,150 Q210,170 280,150 L280,200 L0,200 Z"/>
  <!-- 地狱之门 -->
  <ellipse fill="#FF4500" cx="140" cy="140" rx="50" ry="25"/>
  <ellipse fill="#FF6347" cx="140" cy="135" rx="40" ry="20"/>
  <!-- 火焰 -->
  <path fill="#FFD700" d="M120,120 Q130,90 140,110 Q150,80 160,120"/>
  <path fill="#FFA500" d="M125,115 Q135,95 140,105 Q145,85 155,115"/>
  <path fill="#FF6347" d="M130,110 Q140,100 145,105"/>
  <!-- 岩石边缘 -->
  <path fill="#8B4513" d="M90,145 Q100,135 110,145 Q120,140 130,145 Q140,138 150,145 Q160,140 170,145 Q180,135 190,145"/>
  <!-- 标题 -->
  <rect fill="rgba(255,69,0,0.85)" x="10" y="10" width="90" height="25" rx="4"/>
  <text x="55" y="27" text-anchor="middle" fill="white" font-size="12" font-family="sans-serif">地狱之门</text>
</svg>