<svg xmlns="http://www.w3.org/2000/svg" viewBox="0 0 280 200">
  <rect fill="#87CEEB" width="280" height="200"/>
  <!-- 草地 -->
  <rect fill="#228B22" y="150" width="280" height="50"/>
  <!-- 赛马 -->
  <ellipse fill="#8B4513" cx="140" cy="110" rx="45" ry="28"/>
  <ellipse fill="#A0522D" cx="140" cy="105" rx="40" ry="23"/>
  <!-- 马腿 -->
  <line x1="105" y1="130" x2="95" y2="165" stroke="#8B4513" stroke-width="6"/>
  <line x1="120" y1="130" x2="110" y2="165" stroke="#8B4513" stroke-width="6"/>
  <line x1="160" y1="130" x2="150" y2="165" stroke="#8B4513" stroke-width="6"/>
  <line x1="175" y1="130" x2="185" y2="165" stroke="#8B4513" stroke-width="6"/>
  <!-- 马头 -->
  <ellipse fill="#8B4513" cx="190" cy="90" rx="20" ry="18"/>
  <ellipse fill="#A0522D" cx="195" cy="85" rx="12" ry="10"/>
  <!-- 马尾 -->
  <path fill="#6B4423" d="M95,110 Q75,115 65,105 Q70,125 90,120"/>
  <!-- 骑手 -->
  <ellipse fill="#DEB887" cx="145" cy="75" rx="8" ry="10"/>
  <path fill="#4169E1" d="M137,85 L153,85 L155,115 L135,115 Z"/>
  <!-- 尘土 -->
  <ellipse fill="#D2B48C" opacity="0.4" cx="80" cy="170" rx="30" ry="10"/>
  <!-- 太阳 -->
  <circle fill="#FFD700" cx="230" cy="40" r="25"/>
  <!-- 标题 -->
  <rect fill="rgba(139,69,19,0.85)" x="10" y="10" width="70" height="25" rx="4"/>
  <text x="45" y="27" text-anchor="middle" fill="white" font-size="12" font-family="sans-serif">赛马</text>
</svg>