<svg xmlns="http://www.w3.org/2000/svg" viewBox="0 0 280 200">
  <rect fill="#87CEEB" width="280" height="200"/>
  <!-- 稻田 -->
  <rect fill="#90EE90" y="150" width="280" height="50"/>
  <!-- 竹林背景 -->
  <rect fill="#228B22" x="20" y="80" width="8" height="120"/>
  <rect fill="#228B22" x="45" y="70" width="8" height="130"/>
  <rect fill="#228B22" x="70" y="90" width="8" height="110"/>
  <rect fill="#228B22" x="200" y="80" width="8" height="120"/>
  <rect fill="#228B22" x="225" y="70" width="8" height="130"/>
  <rect fill="#228B22" x="250" y="90" width="8" height="110"/>
  <!-- 斗笠人物 -->
  <path fill="#DAA520" d="M120,60 Q140,40 160,60 Q140,55 120,60"/>
  <ellipse fill="#DEB887" cx="140" cy="75" rx="12" ry="14"/>
  <path fill="#4169E1" d="M128,89 L152,89 L160,170 L120,170 Z"/>
  <!-- 肩挑 -->
  <line x1="110" y1="95" x2="170" y2="95" stroke="#8B4513" stroke-width="4"/>
  <!-- 筐 -->
  <ellipse fill="#8B4513" cx="100" cy="110" rx="15" ry="8"/>
  <rect fill="#A0522D" x="88" y="110" width="24" height="20"/>
  <ellipse fill="#8B4513" cx="180" cy="110" rx="15" ry="8"/>
  <rect fill="#A0522D" x="168" y="110" width="24" height="20"/>
  <!-- 标题 -->
  <rect fill="rgba(0,71,171,0.85)" x="10" y="10" width="70" height="25" rx="4"/>
  <text x="45" y="27" text-anchor="middle" fill="white" font-size="12" font-family="sans-serif">田园风光</text>
</svg>