<svg xmlns="http://www.w3.org/2000/svg" viewBox="0 0 140 110">
  <defs>
    <linearGradient id="bg" x1="0%" y1="0%" x2="100%" y2="100%">
      <stop offset="0%" style="stop-color:#8B4513"/>
      <stop offset="100%" style="stop-color:#A0522D"/>
    </linearGradient>
  </defs>
  <rect fill="url(#bg)" width="140" height="110" rx="8"/>
  <!-- 越南地图轮廓 -->
  <path d="M70 20 Q80 30 75 40 Q85 50 80 60 Q90 70 85 80 Q75 85 70 80 Q65 85 60 80 Q55 70 60 60 Q50 50 55 40 Q60 30 70 20" fill="#228B22" stroke="#FFF" stroke-width="1"/>
  <!-- 红星 -->
  <polygon points="70,35 72,42 80,42 74,47 76,55 70,50 64,55 66,47 60,42 68,42" fill="#FFD700"/>
  <!-- 标签 -->
  <text x="70" y="100" text-anchor="middle" fill="white" font-size="10">独立战争</text>
</svg>