<svg xmlns="http://www.w3.org/2000/svg" viewBox="0 0 140 110">
  <defs>
    <linearGradient id="bg" x1="0%" y1="0%" x2="100%" y2="100%">
      <stop offset="0%" style="stop-color:#DAA520"/>
      <stop offset="100%" style="stop-color:#FFD700"/>
    </linearGradient>
  </defs>
  <rect fill="url(#bg)" width="140" height="110" rx="8"/>
  <!-- 沙嗲串 -->
  <rect x="25" y="50" width="90" height="3" fill="#8B4513"/>
  <rect x="25" y="60" width="90" height="3" fill="#8B4513"/>
  <!-- 肉串 -->
  <rect x="35" y="45" width="10" height="12" fill="#D2691E" rx="2"/>
  <rect x="50" y="45" width="10" height="12" fill="#CD853F" rx="2"/>
  <rect x="65" y="45" width="10" height="12" fill="#D2691E" rx="2"/>
  <rect x="80" y="45" width="10" height="12" fill="#CD853F" rx="2"/>
  <rect x="35" y="55" width="10" height="12" fill="#CD853F" rx="2"/>
  <rect x="50" y="55" width="10" height="12" fill="#D2691E" rx="2"/>
  <rect x="65" y="55" width="10" height="12" fill="#CD853F" rx="2"/>
  <rect x="80" y="55" width="10" height="12" fill="#D2691E" rx="2"/>
  <!-- 花生酱 -->
  <ellipse cx="115" cy="50" rx="12" ry="8" fill="#D2691E"/>
  <!-- 标签 -->
  <text x="70" y="100" text-anchor="middle" fill="#8B4513" font-size="10">沙嗲</text>
</svg>