<svg xmlns="http://www.w3.org/2000/svg" viewBox="0 0 280 200">
  <rect fill="#FFF8DC" width="280" height="200"/>
  <!-- 盘子 -->
  <ellipse fill="#F5F5DC" cx="140" cy="130" rx="90" ry="40"/>
  <!-- 炒河粉 -->
  <ellipse fill="#DEB887" cx="140" cy="120" rx="70" ry="30"/>
  <!-- 配料 -->
  <ellipse fill="#DC143C" cx="110" cy="115" rx="15" ry="8"/>
  <ellipse fill="#90EE90" cx="170" cy="115" rx="12" ry="6"/>
  <!-- 豆芽 -->
  <ellipse fill="#FFFACD" cx="130" cy="125" rx="20" ry="8"/>
  <ellipse fill="#FFFACD" cx="160" cy="125" rx="15" ry="6"/>
  <!-- 蛋 -->
  <ellipse fill="#FFD700" cx="140" cy="110" rx="12" ry="8"/>
  <!-- 柠檬 -->
  <ellipse fill="#32CD32" cx="200" cy="125" rx="10" ry="6"/>
  <!-- 花生碎 -->
  <ellipse fill="#8B4513" cx="100" cy="130" rx="8" ry="4"/>
  <!-- 筷子 -->
  <rect fill="#8B4513" x="230" y="80" width="4" height="80" rx="2" transform="rotate(10,232,120)"/>
  <rect fill="#8B4513" x="242" y="80" width="4" height="80" rx="2" transform="rotate(-10,244,120)"/>
  <!-- 标题 -->
  <rect fill="rgba(220,20,60,0.85)" x="10" y="10" width="70" height="25" rx="4"/>
  <text x="45" y="27" text-anchor="middle" fill="white" font-size="12" font-family="sans-serif">泰式炒粉</text>
</svg>