<svg xmlns="http://www.w3.org/2000/svg" viewBox="0 0 280 200">
  <rect fill="#87CEEB" width="280" height="200"/>
  <!-- 草原 -->
  <rect fill="#228B22" y="140" width="280" height="60"/>
  <!-- 毡房 -->
  <ellipse fill="#F5F5DC" cx="140" cy="90" rx="45" ry="22"/>
  <path fill="#E8E8D0" d="M95,90 Q140,50 185,90"/>
  <!-- 装饰 -->
  <ellipse fill="#FFD700" cx="140" cy="75" rx="22" ry="8"/>
  <!-- 人们 -->
  <ellipse fill="#DEB887" cx="80" cy="120" rx="8" ry="10"/>
  <path fill="#DC143C" d="M72,130 L88,130 L90,170 L70,170 Z"/>
  <ellipse fill="#DEB887" cx="200" cy="120" rx="8" ry="10"/>
  <path fill="#4169E1" d="M192,130 L208,130 L210,170 L190,170 Z"/>
  <!-- 舞蹈线 -->
  <line x1="90" y1="135" x2="190" y2="135" stroke="#DEB887" stroke-width="4"/>
  <!-- 花朵 -->
  <circle fill="#FF69B4" cx="60" cy="165" r="6"/>
  <circle fill="#FFD700" cx="220" cy="165" r="6"/>
  <!-- 太阳 -->
  <circle fill="#FFD700" cx="230" cy="40" r="25"/>
  <!-- 标题 -->
  <rect fill="rgba(34,139,34,0.85)" x="10" y="175" width="70" height="22" rx="4"/>
  <text x="55" y="190" text-anchor="middle" fill="white" font-size="11" font-family="sans-serif">纳乌鲁兹</text>
</svg>