<svg xmlns="http://www.w3.org/2000/svg" viewBox="0 0 280 200">
  <rect fill="#FFF8DC" width="280" height="200"/>
  <!-- 盘子 -->
  <ellipse fill="#F5F5DC" cx="140" cy="140" rx="90" ry="40"/>
  <!-- 米饭 -->
  <ellipse fill="#FFFACD" cx="140" cy="130" rx="70" ry="30"/>
  <!-- 鸡肉 -->
  <ellipse fill="#DAA520" cx="120" cy="120" rx="30" ry="15"/>
  <ellipse fill="#DEB887" cx="118" cy="118" rx="25" ry="12"/>
  <!-- 酱汁 -->
  <ellipse fill="#CD853F" cx="170" cy="125" rx="20" ry="10"/>
  <!-- 葡萄干 -->
  <ellipse fill="#8B0000" cx="100" cy="110" rx="5" ry="3"/>
  <ellipse fill="#8B0000" cx="140" cy="105" rx="5" ry="3"/>
  <!-- 坚果 -->
  <ellipse fill="#8B4513" cx="160" cy="110" rx="6" ry="4"/>
  <ellipse fill="#A0522D" cx="180" cy="115" rx="5" ry="3"/>
  <!-- 香菜 -->
  <ellipse fill="#228B22" cx="130" cy="135" rx="8" ry="4"/>
  <!-- 蒸汽 -->
  <path fill="none" stroke="#E0E0E0" stroke-width="2" opacity="0.5" d="M100,100 Q105,85 100,70"/>
  <path fill="none" stroke="#E0E0E0" stroke-width="2" opacity="0.5" d="M140,95 Q145,80 140,65"/>
  <path fill="none" stroke="#E0E0E0" stroke-width="2" opacity="0.5" d="M180,100 Q185,85 180,70"/>
  <!-- 标题 -->
  <rect fill="rgba(205,133,63,0.85)" x="10" y="10" width="90" height="25" rx="4"/>
  <text x="55" y="27" text-anchor="middle" fill="white" font-size="12" font-family="sans-serif">手抓饭</text>
</svg>