<svg xmlns="http://www.w3.org/2000/svg" viewBox="0 0 140 110">
  <defs>
    <linearGradient id="bg8" x1="0%" y1="0%" x2="0%" y2="100%">
      <stop offset="0%" style="stop-color:#FFEBEE"/>
      <stop offset="100%" style="stop-color:#FFCDD2"/>
    </linearGradient>
  </defs>
  <rect fill="url(#bg8)" width="140" height="110"/>
  <!-- зғӨиӮүдёІ -->
  <rect fill="#8D6E63" x="25" y="55" width="90" height="3" rx="1"/>
  <rect fill="#8D6E63" x="25" y="65" width="90" height="3" rx="1"/>
  <rect fill="#8D6E63" x="25" y="75" width="90" height="3" rx="1"/>
  <!-- иӮүеқ— -->
  <ellipse fill="#8B4513" cx="40" cy="56" rx="10" ry="6"/>
  <ellipse fill="#A0522D" cx="65" cy="56" rx="12" ry="6"/>
  <ellipse fill="#8B4513" cx="90" cy="56" rx="10" ry="6"/>
  <ellipse fill="#A0522D" cx="50" cy="66" rx="11" ry="6"/>
  <ellipse fill="#8B4513" cx="75" cy="66" rx="12" ry="6"/>
  <ellipse fill="#A0522D" cx="100" cy="66" rx="8" ry="5"/>
  <ellipse fill="#8B4513" cx="45" cy="76" rx="10" ry="5"/>
  <ellipse fill="#A0522D" cx="70" cy="76" rx="12" ry="5"/>
  <ellipse fill="#8B4513" cx="95" cy="76" rx="10" ry="5"/>
  <rect fill="rgba(0,0,0,0.5)" x="10" y="92" width="50" height="16" rx="2"/>
  <text x="35" y="104" text-anchor="middle" fill="white" font-size="8" font-family="sans-serif">зғӨиӮүдёІ</text>
</svg>
