<svg xmlns="http://www.w3.org/2000/svg" viewBox="0 0 280 200">
  <!-- 背景 -->
  <rect fill="#FFF8E7" width="280" height="200"/>
  <!-- 蒸笼 -->
  <ellipse fill="#DEB887" cx="140" cy="160" rx="100" ry="30"/>
  <ellipse fill="#D2B48C" cx="140" cy="155" rx="90" ry="25"/>
  <path fill="#C4A574" d="M40,160 L40,150 Q140,140 240,150 L240,160 Q140,170 40,160 Z"/>
  <!-- 蒸笼盖 -->
  <ellipse fill="#D2B48C" cx="140" cy="50" rx="95" ry="25"/>
  <ellipse fill="#DEB887" cx="140" cy="55" rx="85" ry="20"/>
  <ellipse fill="#C4A574" cx="140" cy="50" rx="50" ry="12"/>
  <!-- 盖子把手 -->
  <ellipse fill="#8B7355" cx="140" cy="45" rx="20" ry="8"/>
  <ellipse fill="#A0826D" cx="140" cy="43" rx="15" ry="6"/>
  <!-- 小笼包们 -->
  <ellipse fill="#F5F5DC" cx="90" cy="130" rx="25" ry="18"/>
  <ellipse fill="#FFFAF0" cx="90" cy="125" rx="22" ry="15"/>
  <path fill="#E8E4D9" d="M75,125 Q90,115 105,125"/>
  <!-- 褶皱 -->
  <path fill="none" stroke="#D4C5A9" stroke-width="1" d="M80,120 Q85,118 90,120"/>
  <path fill="none" stroke="#D4C5A9" stroke-width="1" d="M90,118 Q95,116 100,118"/>
  <path fill="none" stroke="#D4C5A9" stroke-width="1" d="M85,122 Q90,120 95,122"/>
  
  <ellipse fill="#F5F5DC" cx="150" cy="125" rx="25" ry="18"/>
  <ellipse fill="#FFFAF0" cx="150" cy="120" rx="22" ry="15"/>
  <path fill="#E8E4D9" d="M135,120 Q150,110 165,120"/>
  <path fill="none" stroke="#D4C5A9" stroke-width="1" d="M140,115 Q145,113 150,115"/>
  <path fill="none" stroke="#D4C5A9" stroke-width="1" d="M150,113 Q155,111 160,113"/>
  <path fill="none" stroke="#D4C5A9" stroke-width="1" d="M145,117 Q150,115 155,117"/>
  
  <ellipse fill="#F5F5DC" cx="200" cy="130" rx="25" ry="18"/>
  <ellipse fill="#FFFAF0" cx="200" cy="125" rx="22" ry="15"/>
  <path fill="#E8E4D9" d="M185,125 Q200,115 215,125"/>
  <path fill="none" stroke="#D4C5A9" stroke-width="1" d="M190,120 Q195,118 200,120"/>
  <path fill="none" stroke="#D4C5A9" stroke-width="1" d="M200,118 Q205,116 210,118"/>
  <path fill="none" stroke="#D4C5A9" stroke-width="1" d="M195,122 Q200,120 205,122"/>
  <!-- 蒸汽 -->
  <path fill="none" stroke="#FFFFFF" stroke-width="3" opacity="0.5" d="M80,80 Q85,70 80,60 Q75,50 80,40"/>
  <path fill="none" stroke="#FFFFFF" stroke-width="3" opacity="0.5" d="M140,75 Q145,65 140,55 Q135,45 140,35"/>
  <path fill="none" stroke="#FFFFFF" stroke-width="3" opacity="0.5" d="M200,80 Q205,70 200,60 Q195,50 200,40"/>
  <!-- 醋碟 -->
  <ellipse fill="#2F4F4F" cx="240" cy="140" rx="20" ry="10"/>
  <ellipse fill="#000000" cx="240" cy="138" rx="15" ry="7"/>
</svg>