<svg xmlns="http://www.w3.org/2000/svg" viewBox="0 0 280 200">
  <!-- 背景 -->
  <rect fill="#FFF8E7" width="280" height="200"/>
  <!-- 盘子 -->
  <ellipse fill="#FFFFFF" cx="140" cy="150" rx="120" ry="40"/>
  <ellipse fill="#F0F0F0" cx="140" cy="150" rx="105" ry="32"/>
  <!-- 酱汁 -->
  <ellipse fill="#DC143C" opacity="0.6" cx="140" cy="145" rx="100" ry="28"/>
  <!-- 排骨 -->
  <path fill="#CD853F" d="M50,130 Q60,115 75,120 Q85,125 80,140 Q75,150 60,145 Q50,140 50,130 Z"/>
  <rect fill="#DEB887" x="75" y="118" width="8" height="30" rx="2"/>
  
  <path fill="#CD853F" d="M95,125 Q105,110 120,115 Q130,120 125,135 Q120,145 105,140 Q95,135 95,125 Z"/>
  <rect fill="#DEB887" x="120" y="113" width="8" height="30" rx="2"/>
  
  <path fill="#CD853F" d="M140,120 Q150,105 165,110 Q175,115 170,130 Q165,140 150,135 Q140,130 140,120 Z"/>
  <rect fill="#DEB887" x="165" y="108" width="8" height="30" rx="2"/>
  
  <path fill="#CD853F" d="M185,125 Q195,110 210,115 Q220,120 215,135 Q210,145 195,140 Q185,135 185,125 Z"/>
  <rect fill="#DEB887" x="210" y="113" width="8" height="30" rx="2"/>
  <!-- 酱汁光泽 -->
  <ellipse fill="#FF6B6B" opacity="0.4" cx="70" cy="135" rx="15" ry="8"/>
  <ellipse fill="#FF6B6B" opacity="0.4" cx="140" cy="125" rx="20" ry="10"/>
  <ellipse fill="#FF6B6B" opacity="0.4" cx="200" cy="130" rx="18" ry="9"/>
  <!-- 葱花装饰 -->
  <ellipse fill="#90EE90" cx="60" cy="160" rx="3" ry="2"/>
  <ellipse fill="#90EE90" cx="100" cy="165" rx="3" ry="2"/>
  <ellipse fill="#90EE90" cx="150" cy="158" rx="3" ry="2"/>
</svg>