<svg xmlns="http://www.w3.org/2000/svg" viewBox="0 0 280 200">
  <rect fill="#87CEEB" width="280" height="200"/>
  <!-- 沙漠 -->
  <path fill="#D2B48C" d="M0,150 Q70,130 140,150 Q210,170 280,150 L280,200 L0,200 Z"/>
  <!-- 科威特塔 -->
  <ellipse fill="#4169E1" cx="100" cy="100" rx="25" ry="50"/>
  <ellipse fill="#1E90FF" cx="100" cy="95" rx="20" ry="45"/>
  <rect fill="#F5F5F5" x="98" y="40" width="4" height="20"/>
  <ellipse fill="#F5F5F5" cx="100" cy="40" rx="5" ry="8"/>
  <ellipse fill="#4169E1" cx="180" cy="110" rx="20" ry="40"/>
  <ellipse fill="#1E90FF" cx="180" cy="105" rx="15" ry="35"/>
  <rect fill="#F5F5F5" x="178" y="60" width="4" height="20"/>
  <ellipse fill="#F5F5F5" cx="180" cy="60" rx="5" ry="8"/>
  <!-- 旗杆 -->
  <rect fill="#8B4513" x="140" y="30" width="4" height="120"/>
  <!-- 科威特国旗 -->
  <rect fill="#00A651" x="144" y="35" width="50" height="15"/>
  <rect fill="white" x="144" y="50" width="50" height="15"/>
  <rect fill="#CE1126" x="144" y="65" width="50" height="15"/>
  <polygon fill="#1a1a1a" points="144,35 144,80 125,57.5"/>
  <!-- 标题 -->
  <rect fill="rgba(65,105,225,0.85)" x="10" y="10" width="70" height="25" rx="4"/>
  <text x="55" y="27" text-anchor="middle" fill="white" font-size="12" font-family="sans-serif">科威特塔</text>
</svg>