<svg xmlns="http://www.w3.org/2000/svg" viewBox="0 0 280 200">
  <!-- 背景 -->
  <rect fill="#FFF8E7" width="280" height="200"/>
  <!-- 盘子 -->
  <ellipse fill="#FFFFFF" cx="140" cy="130" rx="110" ry="50"/>
  <ellipse fill="#F0F0F0" cx="140" cy="130" rx="95" ry="42"/>
  <!-- 烤鸭 -->
  <ellipse fill="#8B4513" cx="140" cy="120" rx="60" ry="35"/>
  <ellipse fill="#CD853F" cx="140" cy="115" rx="55" ry="30"/>
  <ellipse fill="#D2691E" cx="140" cy="110" rx="50" ry="25"/>
  <!-- 葱丝装饰 -->
  <path fill="#90EE90" d="M100,105 Q105,95 110,105 Q115,95 120,105"/>
  <path fill="#90EE90" d="M160,105 Q165,95 170,105 Q175,95 180,105"/>
  <!-- 鸭头 -->
  <ellipse fill="#8B4513" cx="75" cy="110" rx="15" ry="12"/>
  <circle fill="#2F2F2F" cx="70" cy="108" r="2"/>
  <!-- 酱料碗 -->
  <ellipse fill="#8B0000" cx="220" cy="140" rx="25" ry="12"/>
  <ellipse fill="#A52A2A" cx="220" cy="138" rx="20" ry="9"/>
  <!-- 薄饼 -->
  <ellipse fill="#FFF5E6" cx="60" cy="160" rx="30" ry="15"/>
  <ellipse fill="#FFEFD5" cx="60" cy="158" rx="25" ry="12"/>
  <!-- 标题 -->
  <rect fill="rgba(139,69,19,0.8)" x="10" y="10" width="80" height="25" rx="4"/>
  <text x="50" y="27" text-anchor="middle" fill="white" font-size="12" font-family="sans-serif">北京烤鸭</text>
</svg>