<svg xmlns="http://www.w3.org/2000/svg" viewBox="0 0 280 200">
  <rect fill="#1a1a2e" width="280" height="200"/>
  <!-- 月亮 -->
  <circle fill="#FFD700" opacity="0.9" cx="220" cy="50" r="30"/>
  <!-- 天房轮廓 -->
  <rect fill="#2F2F2F" x="100" y="80" width="80" height="80"/>
  <rect fill="#3A3A3A" x="105" y="85" width="70" height="70"/>
  <rect fill="#FFD700" x="125" y="100" width="30" height="40"/>
  <!-- 朝圣人群 -->
  <ellipse fill="#F5F5DC" cx="70" cy="150" rx="8" ry="10"/>
  <ellipse fill="#F5F5DC" cx="90" cy="155" rx="8" ry="10"/>
  <ellipse fill="#F5F5DC" cx="110" cy="160" rx="8" ry="10"/>
  <ellipse fill="#F5F5DC" cx="130" cy="158" rx="8" ry="10"/>
  <ellipse fill="#F5F5DC" cx="150" cy="160" rx="8" ry="10"/>
  <ellipse fill="#F5F5DC" cx="170" cy="155" rx="8" ry="10"/>
  <ellipse fill="#F5F5DC" cx="190" cy="150" rx="8" ry="10"/>
  <ellipse fill="#F5F5DC" cx="210" cy="155" rx="8" ry="10"/>
  <!-- 星星 -->
  <circle fill="#FFD700" cx="40" cy="40" r="2"/>
  <circle fill="#FFD700" cx="100" cy="30" r="1.5"/>
  <circle fill="#FFD700" cx="180" cy="35" r="2"/>
  <!-- 标题 -->
  <rect fill="rgba(218,165,32,0.85)" x="10" y="175" width="90" height="22" rx="4"/>
  <text x="55" y="190" text-anchor="middle" fill="white" font-size="11" font-family="sans-serif">朝觐</text>
</svg>