<svg xmlns="http://www.w3.org/2000/svg" viewBox="0 0 280 200">
  <rect fill="#F5DEB3" width="280" height="200"/>
  <!-- 沙地 -->
  <rect fill="#D2B48C" y="120" width="280" height="80"/>
  <!-- 赛骆驼 -->
  <ellipse fill="#D2691E" cx="150" cy="110" rx="60" ry="30"/>
  <ellipse fill="#CD853F" cx="150" cy="105" rx="55" ry="25"/>
  <!-- 驼峰 -->
  <ellipse fill="#D2691E" cx="130" cy="85" rx="20" ry="25"/>
  <ellipse fill="#CD853F" cx="130" cy="82" rx="15" ry="20"/>
  <ellipse fill="#D2691E" cx="170" cy="85" rx="20" ry="25"/>
  <ellipse fill="#CD853F" cx="170" cy="82" rx="15" ry="20"/>
  <!-- 驼头 -->
  <ellipse fill="#D2691E" cx="210" cy="95" rx="20" ry="15"/>
  <!-- 腿 -->
  <rect fill="#A0522D" x="100" y="130" width="8" height="40"/>
  <rect fill="#A0522D" x="130" y="130" width="8" height="40"/>
  <rect fill="#A0522D" x="160" y="130" width="8" height="40"/>
  <rect fill="#A0522D" x="190" y="130" width="8" height="40"/>
  <!-- 骑手 -->
  <ellipse fill="#DEB887" cx="150" cy="70" rx="8" ry="10"/>
  <path fill="#4169E1" d="M142,80 L158,80 L160,100 L140,100 Z"/>
  <!-- 标题 -->
  <rect fill="rgba(210,180,140,0.85)" x="10" y="10" width="90" height="25" rx="4"/>
  <text x="55" y="27" text-anchor="middle" fill="white" font-size="12" font-family="sans-serif">骆驼赛跑</text>
</svg>