<svg xmlns="http://www.w3.org/2000/svg" viewBox="0 0 280 200">
  <rect fill="#FFF8DC" width="280" height="200"/>
  <!-- 碗 -->
  <ellipse fill="#F5F5DC" cx="140" cy="140" rx="85" ry="35"/>
  <ellipse fill="#FFFACD" cx="140" cy="135" rx="75" ry="30"/>
  <!-- 汤面 -->
  <ellipse fill="#F5DEB3" cx="140" cy="130" rx="65" ry="25"/>
  <!-- 鱼肉 -->
  <ellipse fill="#DC143C" cx="120" cy="120" rx="20" ry="10"/>
  <ellipse fill="#FF6B6B" cx="118" cy="118" rx="16" ry="8"/>
  <!-- 香菜 -->
  <ellipse fill="#228B22" cx="160" cy="115" rx="12" ry="6"/>
  <ellipse fill="#32CD32" cx="145" cy="125" rx="8" ry="4"/>
  <!-- 辣椒 -->
  <ellipse fill="#FF4500" cx="100" cy="125" rx="10" ry="5"/>
  <!-- 柠檬 -->
  <ellipse fill="#32CD32" cx="180" cy="130" rx="10" ry="6"/>
  <!-- 蒸汽 -->
  <path fill="none" stroke="#E0E0E0" stroke-width="2" opacity="0.5" d="M100,100 Q105,85 100,70"/>
  <path fill="none" stroke="#E0E0E0" stroke-width="2" opacity="0.5" d="M140,95 Q145,80 140,65"/>
  <path fill="none" stroke="#E0E0E0" stroke-width="2" opacity="0.5" d="M180,100 Q185,85 180,70"/>
  <!-- 标题 -->
  <rect fill="rgba(220,20,60,0.85)" x="10" y="10" width="70" height="25" rx="4"/>
  <text x="45" y="27" text-anchor="middle" fill="white" font-size="12" font-family="sans-serif">鱼汤面</text>
</svg>