<svg xmlns="http://www.w3.org/2000/svg" viewBox="0 0 280 200">
  <rect fill="#87CEEB" width="280" height="200"/>
  <!-- 帆船酒店 -->
  <path fill="#F5F5F5" d="M80,180 L80,50 Q140,20 200,50 L200,180 Z"/>
  <path fill="#E8E8E8" d="M90,180 L90,55 Q140,30 190,55 L190,180 Z"/>
  <!-- 窗户 -->
  <rect fill="#4169E1" x="100" y="70" width="15" height="20"/>
  <rect fill="#4169E1" x="130" y="60" width="15" height="20"/>
  <rect fill="#4169E1" x="160" y="70" width="15" height="20"/>
  <rect fill="#4169E1" x="100" y="100" width="15" height="20"/>
  <rect fill="#4169E1" x="130" y="90" width="15" height="20"/>
  <rect fill="#4169E1" x="160" y="100" width="15" height="20"/>
  <!-- 海水 -->
  <rect fill="#4169E1" opacity="0.5" y="170" width="280" height="30"/>
  <!-- 棕榈树 -->
  <rect fill="#8B4513" x="30" y="100" width="8" height="70"/>
  <ellipse fill="#228B22" cx="34" cy="95" rx="25" ry="12"/>
  <rect fill="#8B4513" x="245" y="110" width="8" height="60"/>
  <ellipse fill="#228B22" cx="249" cy="105" rx="20" ry="10"/>
  <!-- 太阳 -->
  <circle fill="#FFD700" cx="230" cy="40" r="20"/>
  <!-- 标题 -->
  <rect fill="rgba(245,245,245,0.9)" x="10" y="10" width="90" height="25" rx="4"/>
  <text x="55" y="27" text-anchor="middle" fill="#4169E1" font-size="12" font-family="sans-serif">帆船酒店</text>
</svg>