<svg xmlns="http://www.w3.org/2000/svg" viewBox="0 0 140 110">
  <defs>
    <linearGradient id="bg34" x1="0%" y1="0%" x2="0%" y2="100%">
      <stop offset="0%" style="stop-color:#4CAF50"/>
      <stop offset="100%" style="stop-color:#A5D6A7"/>
    </linearGradient>
  </defs>
  <rect fill="url(#bg34)" width="140" height="110"/>
  <!-- 花朵装饰 -->
  <circle fill="#E91E63" cx="35" cy="35" r="12"/>
  <circle fill="#FF4081" cx="35" cy="35" r="6"/>
  <circle fill="#E91E63" cx="105" cy="35" r="12"/>
  <circle fill="#FF4081" cx="105" cy="35" r="6"/>
  <!-- 供品 -->
  <rect fill="#FFD700" x="55" y="50" width="30" height="25" rx="2"/>
  <ellipse fill="#FFEB3B" cx="70" cy="50" rx="15" ry="5"/>
  <!-- 烛光 -->
  <ellipse fill="#FF9800" cx="45" cy="70" rx="5" ry="10"/>
  <ellipse fill="#FFEB3B" cx="45" cy="65" rx="3" ry="6"/>
  <ellipse fill="#FF9800" cx="95" cy="70" rx="5" ry="10"/>
  <ellipse fill="#FFEB3B" cx="95" cy="65" rx="3" ry="6"/>
  <!-- 经幡 -->
  <rect fill="#2196F3" x="20" y="50" width="8" height="30"/>
  <rect fill="#4CAF50" x="28" y="50" width="8" height="30"/>
  <rect fill="#F44336" x="36" y="50" width="8" height="30"/>
  <rect fill="#FFEB3B" x="96" y="50" width="8" height="30"/>
  <rect fill="#9C27B0" x="104" y="50" width="8" height="30"/>
  <rect fill="#2196F3" x="112" y="50" width="8" height="30"/>
  <rect fill="rgba(0,0,0,0.5)" x="10" y="92" width="50" height="16" rx="2"/>
  <text x="35" y="104" text-anchor="middle" fill="white" font-size="8" font-family="sans-serif">新年节</text>
</svg>
