<svg xmlns="http://www.w3.org/2000/svg" viewBox="0 0 280 200">
  <rect fill="#87CEEB" width="280" height="200"/>
  <!-- 草地 -->
  <rect fill="#228B22" y="150" width="280" height="50"/>
  <!-- 猎鹰 -->
  <path fill="#8B4513" d="M160,70 Q180,50 200,70 Q190,80 175,75 Q165,80 160,70"/>
  <ellipse fill="#D2691E" cx="175" cy="65" rx="8" ry="6"/>
  <circle fill="#FFD700" cx="172" cy="63" r="2"/>
  <!-- 翅膀 -->
  <path fill="#6B4423" d="M160,70 Q130,50 120,80 Q140,70 160,70"/>
  <path fill="#6B4423" d="M200,70 Q220,50 230,80 Q210,70 200,70"/>
  <!-- 猎人 -->
  <ellipse fill="#DEB887" cx="80" cy="90" rx="10" ry="12"/>
  <path fill="#4169E1" d="M70,102 L90,102 L95,150 L65,150 Z"/>
  <!-- 手臂 -->
  <line x1="95" y1="105" x2="130" y2="85" stroke="#DEB887" stroke-width="5" stroke-linecap="round"/>
  <!-- 皮手套 -->
  <ellipse fill="#8B4513" cx="135" cy="82" rx="12" ry="8"/>
  <!-- 马 -->
  <ellipse fill="#8B4513" cx="60" cy="140" rx="35" ry="20"/>
  <ellipse fill="#A0522D" cx="55" cy="135" rx="30" ry="16"/>
  <line x1="35" y1="150" x2="30" y2="180" stroke="#8B4513" stroke-width="5"/>
  <line x1="50" y1="150" x2="45" y2="180" stroke="#8B4513" stroke-width="5"/>
  <line x1="70" y1="150" x2="65" y2="180" stroke="#8B4513" stroke-width="5"/>
  <line x1="85" y1="150" x2="80" y2="180" stroke="#8B4513" stroke-width="5"/>
  <!-- 标题 -->
  <rect fill="rgba(139,69,19,0.85)" x="10" y="10" width="70" height="25" rx="4"/>
  <text x="45" y="27" text-anchor="middle" fill="white" font-size="12" font-family="sans-serif">猎鹰</text>
</svg>