<svg xmlns="http://www.w3.org/2000/svg" viewBox="0 0 280 200">
  <!-- 夜空 -->
  <rect fill="#1a1a2e" width="280" height="200"/>
  <!-- 烟花 -->
  <g transform="translate(70,50)">
    <line x1="0" y1="0" x2="20" y2="-25" stroke="#FF6B6B" stroke-width="2"/>
    <line x1="0" y1="0" x2="-20" y2="-25" stroke="#FF6B6B" stroke-width="2"/>
    <line x1="0" y1="0" x2="25" y2="0" stroke="#4ECDC4" stroke-width="2"/>
    <line x1="0" y1="0" x2="-25" y2="0" stroke="#4ECDC4" stroke-width="2"/>
    <line x1="0" y1="0" x2="0" y2="-30" stroke="#FFD93D" stroke-width="2"/>
    <circle fill="#FFD700" cx="20" cy="-25" r="3"/>
    <circle fill="#FF6B6B" cx="-20" cy="-25" r="3"/>
    <circle fill="#4ECDC4" cx="25" cy="0" r="3"/>
    <circle fill="#FFD93D" cx="0" cy="-30" r="3"/>
  </g>
  <g transform="translate(210,40)">
    <line x1="0" y1="0" x2="18" y2="-20" stroke="#FF69B4" stroke-width="2"/>
    <line x1="0" y1="0" x2="-18" y2="-20" stroke="#FF69B4" stroke-width="2"/>
    <line x1="0" y1="0" x2="0" y2="-25" stroke="#87CEEB" stroke-width="2"/>
    <circle fill="#FF69B4" cx="18" cy="-20" r="2"/>
    <circle fill="#87CEEB" cx="0" cy="-25" r="3"/>
  </g>
  <!-- 和服人物 -->
  <ellipse fill="#FFE4C4" cx="120" cy="90" rx="12" ry="14"/>
  <ellipse fill="#FFE4C4" cx="180" cy="85" rx="10" ry="12"/>
  <!-- 和服1 -->
  <path fill="#E91E63" d="M108,104 L132,104 L140,180 L100,180 Z"/>
  <path fill="#C2185B" d="M115,104 L120,180 L108,180 L100,110 Z"/>
  <ellipse fill="#FFD700" cx="120" cy="108" r="4"/>
  <!-- 和服2 -->
  <path fill="#9C27B0" d="M170,97 L190,97 L195,175 L165,175 Z"/>
  <path fill="#7B1FA2" d="M175,97 L180,175 L168,175 L165,105 Z"/>
  <!-- 灯笼 -->
  <rect fill="#FFD700" x="35" y="110" width="20" height="4"/>
  <ellipse fill="#DC143C" cx="45" cy="135" rx="12" ry="20"/>
  <rect fill="#FFD700" x="37" y="155" width="16" height="4"/>
  <line x1="45" y1="159" x2="45" y2="170" stroke="#FFD700" stroke-width="2"/>
  <!-- 标题 -->
  <rect fill="rgba(233,30,99,0.85)" x="10" y="175" width="70" height="22" rx="4"/>
  <text x="45" y="190" text-anchor="middle" fill="white" font-size="11" font-family="sans-serif">花火大会</text>
</svg>