<svg xmlns="http://www.w3.org/2000/svg" viewBox="0 0 280 200">
  <rect fill="#87CEEB" width="280" height="200"/>
  <!-- 山脉 -->
  <polygon fill="#A0522D" points="0,200 50,100 100,150 150,80 200,140 250,100 280,130 280,200"/>
  <!-- 苏丹卡布斯大清真寺 -->
  <ellipse fill="#F5F5F5" cx="140" cy="100" rx="60" ry="35"/>
  <path fill="#E8E8E8" d="M80,100 Q140,40 200,100"/>
  <!-- 主穹顶 -->
  <ellipse fill="#FFD700" cx="140" cy="60" rx="25" ry="20"/>
  <path fill="#DAA520" d="M115,60 Q140,30 165,60"/>
  <!-- 尖塔 -->
  <rect fill="#FFD700" x="138" y="25" width="4" height="15"/>
  <!-- 宣礼塔 -->
  <rect fill="#F5F5F5" x="55" y="70" width="15" height="100"/>
  <ellipse fill="#F5F5F5" cx="62" cy="65" rx="10" ry="12"/>
  <rect fill="#F5F5F5" x="210" y="70" width="15" height="100"/>
  <ellipse fill="#F5F5F5" cx="217" cy="65" rx="10" ry="12"/>
  <!-- 门 -->
  <path fill="#8B4513" d="M120,170 L120,130 Q140,110 160,130 L160,170 Z"/>
  <!-- 标题 -->
  <rect fill="rgba(245,245,245,0.9)" x="10" y="10" width="90" height="25" rx="4"/>
  <text x="55" y="27" text-anchor="middle" fill="#8B4513" font-size="12" font-family="sans-serif">大清真寺</text>
</svg>