<svg xmlns="http://www.w3.org/2000/svg" viewBox="0 0 280 200">
  <!-- 背景 -->
  <rect fill="#F5DEB3" width="280" height="200"/>
  <!-- 地面 -->
  <rect fill="#D2691E" x="0" y="170" width="280" height="30"/>
  <!-- 坑洞 -->
  <ellipse fill="#8B4513" cx="140" cy="175" rx="130" ry="20"/>
  <!-- 兵马俑阵列 - 第一排 -->
  <!-- 俑1 -->
  <rect fill="#C0A080" x="30" y="110" width="25" height="60" rx="3"/>
  <circle fill="#C0A080" cx="42.5" cy="100" r="12"/>
  <rect fill="#8B7355" x="33" y="90" width="19" height="8"/>
  <circle fill="#2F2F2F" cx="38" cy="98" r="2"/>
  <circle fill="#2F2F2F" cx="47" cy="98" r="2"/>
  <path fill="#8B4513" d="M32,110 L42.5,105 L53,110 Z"/>
  <!-- 俑2 -->
  <rect fill="#C0A080" x="75" y="110" width="25" height="60" rx="3"/>
  <circle fill="#C0A080" cx="87.5" cy="100" r="12"/>
  <rect fill="#8B7355" x="78" y="90" width="19" height="8"/>
  <circle fill="#2F2F2F" cx="83" cy="98" r="2"/>
  <circle fill="#2F2F2F" cx="92" cy="98" r="2"/>
  <path fill="#8B4513" d="M77,110 L87.5,105 L98,110 Z"/>
  <!-- 俑3 -->
  <rect fill="#C0A080" x="127" y="100" width="30" height="70" rx="3"/>
  <circle fill="#C0A080" cx="142" cy="88" r="14"/>
  <rect fill="#8B7355" x="130" y="77" width="24" height="10"/>
  <circle fill="#2F2F2F" cx="137" cy="86" r="2.5"/>
  <circle fill="#2F2F2F" cx="147" cy="86" r="2.5"/>
  <path fill="#8B0000" d="M129,100 L142,94 L155,100 Z"/>
  <rect fill="#FFD700" x="137" y="94" width="10" height="3"/>
  <!-- 俑4 -->
  <rect fill="#C0A080" x="180" y="110" width="25" height="60" rx="3"/>
  <circle fill="#C0A080" cx="192.5" cy="100" r="12"/>
  <rect fill="#8B7355" x="183" y="90" width="19" height="8"/>
  <circle fill="#2F2F2F" cx="188" cy="98" r="2"/>
  <circle fill="#2F2F2F" cx="197" cy="98" r="2"/>
  <path fill="#8B4513" d="M182,110 L192.5,105 L203,110 Z"/>
  <!-- 俑5 -->
  <rect fill="#C0A080" x="225" y="110" width="25" height="60" rx="3"/>
  <circle fill="#C0A080" cx="237.5" cy="100" r="12"/>
  <rect fill="#8B7355" x="228" y="90" width="19" height="8"/>
  <circle fill="#2F2F2F" cx="233" cy="98" r="2"/>
  <circle fill="#2F2F2F" cx="242" cy="98" r="2"/>
  <path fill="#8B4513" d="M227,110 L237.5,105 L248,110 Z"/>
  <!-- 装饰纹路 -->
  <line stroke="#8B7355" stroke-width="1" x1="42.5" y1="115" x2="42.5" y2="165"/>
  <line stroke="#8B7355" stroke-width="1" x1="87.5" y1="115" x2="87.5" y2="165"/>
  <line stroke="#8B7355" stroke-width="1.5" x1="142" y1="105" x2="142" y2="165"/>
  <line stroke="#8B7355" stroke-width="1" x1="192.5" y1="115" x2="192.5" y2="165"/>
  <line stroke="#8B7355" stroke-width="1" x1="237.5" y1="115" x2="237.5" y2="165"/>
</svg>