<svg xmlns="http://www.w3.org/2000/svg" viewBox="0 0 280 200">
  <!-- 背景 - 天空 -->
  <rect fill="#87CEEB" width="280" height="200"/>
  <!-- 远山 -->
  <path fill="#4A766E" d="M0,180 Q20,120 40,140 Q60,100 80,130 Q100,90 120,120 Q140,80 160,110 Q180,70 200,100 Q220,60 240,90 Q260,50 280,80 L280,200 L0,200 Z"/>
  <!-- 近山 -->
  <path fill="#2F4F4F" d="M-20,200 Q30,150 60,170 Q90,140 120,160 Q150,130 180,150 Q210,120 240,140 Q270,110 300,130 L300,200 Z"/>
  <!-- 水面 -->
  <path fill="#5F9EA0" opacity="0.7" d="M0,160 Q70,155 140,158 Q210,155 280,160 L280,200 L0,200 Z"/>
  <!-- 水面倒影 -->
  <path fill="#87CEEB" opacity="0.3" d="M40,165 Q50,170 60,168 Q70,175 80,170"/>
  <path fill="#87CEEB" opacity="0.3" d="M140,165 Q150,172 160,168 Q170,175 180,170"/>
  <!-- 竹筏 -->
  <rect fill="#8B4513" x="110" y="168" width="60" height="6" rx="2"/>
  <line stroke="#654321" stroke-width="2" x1="115" y1="170" x2="115" y2="175"/>
  <line stroke="#654321" stroke-width="2" x1="125" y1="170" x2="125" y2="175"/>
  <line stroke="#654321" stroke-width="2" x1="135" y1="170" x2="135" y2="175"/>
  <line stroke="#654321" stroke-width="2" x1="145" y1="170" x2="145" y2="175"/>
  <line stroke="#654321" stroke-width="2" x1="155" y1="170" x2="155" y2="175"/>
  <line stroke="#654321" stroke-width="2" x1="165" y1="170" x2="165" y2="175"/>
  <!-- 渔翁 -->
  <ellipse fill="#4A4A4A" cx="135" cy="158" rx="8" ry="10"/>
  <circle fill="#FFE4C4" cx="135" cy="148" r="7"/>
  <path fill="#4A4A4A" d="M128,145 L135,138 L142,145 Z"/>
  <line stroke="#8B4513" stroke-width="2" x1="145" y1="155" x2="170" y2="150"/>
  <!-- 飞鸟 -->
  <path fill="none" stroke="#333" stroke-width="2" d="M50,60 Q55,55 60,60 Q65,55 70,60"/>
  <path fill="none" stroke="#333" stroke-width="2" d="M90,45 Q95,40 100,45 Q105,40 110,45"/>
  <path fill="none" stroke="#333" stroke-width="2" d="M180,50 Q185,45 190,50 Q195,45 200,50"/>
</svg>