<svg xmlns="http://www.w3.org/2000/svg" viewBox="0 0 140 110">
  <defs>
    <linearGradient id="bg" x1="0%" y1="0%" x2="100%" y2="100%">
      <stop offset="0%" style="stop-color:#1E3A5F"/>
      <stop offset="100%" style="stop-color:#2E5A8F"/>
    </linearGradient>
  </defs>
  <rect fill="url(#bg)" width="140" height="110" rx="8"/>
  <!-- 鱼尾狮 -->
  <ellipse cx="70" cy="55" rx="25" ry="35" fill="#D3D3D3"/>
  <!-- 狮头 -->
  <circle cx="70" cy="35" r="15" fill="#A9A9A9"/>
  <!-- 鬃毛 -->
  <path d="M55 30 Q50 20 55 15" stroke="#696969" stroke-width="3" fill="none"/>
  <path d="M65 28 Q60 15 65 10" stroke="#696969" stroke-width="3" fill="none"/>
  <path d="M75 28 Q80 15 75 10" stroke="#696969" stroke-width="3" fill="none"/>
  <path d="M85 30 Q90 20 85 15" stroke="#696969" stroke-width="3" fill="none"/>
  <!-- 喷水 -->
  <path d="M85 45 Q100 35 110 40" stroke="#87CEEB" stroke-width="4" fill="none"/>
  <!-- 鱼尾 -->
  <path d="M70 85 Q50 95 40 85 Q50 90 55 100" fill="#4A766E"/>
  <path d="M70 85 Q90 95 100 85 Q90 90 85 100" fill="#4A766E"/>
  <!-- 标签 -->
  <text x="70" y="100" text-anchor="middle" fill="white" font-size="10">鱼尾狮</text>
</svg>