<svg xmlns="http://www.w3.org/2000/svg" viewBox="0 0 280 200">
  <rect fill="#FFF8DC" width="280" height="200"/>
  <!-- 盘子 -->
  <ellipse fill="#F5F5DC" cx="140" cy="140" rx="90" ry="40"/>
  <!-- 土耳其烤肉 -->
  <ellipse fill="#D2691E" cx="140" cy="100" rx="25" ry="50"/>
  <ellipse fill="#CD853F" cx="140" cy="95" rx="20" ry="45"/>
  <!-- 旋转肉纹理 -->
  <ellipse fill="#8B4513" cx="140" cy="80" rx="18" ry="5"/>
  <ellipse fill="#8B4513" cx="140" cy="95" rx="18" ry="5"/>
  <ellipse fill="#8B4513" cx="140" cy="110" rx="18" ry="5"/>
  <!-- 面饼 -->
  <ellipse fill="#DEB887" cx="80" cy="150" rx="30" ry="15"/>
  <ellipse fill="#F5DEB3" cx="78" cy="148" rx="25" ry="12"/>
  <ellipse fill="#DEB887" cx="200" cy="150" rx="30" ry="15"/>
  <ellipse fill="#F5DEB3" cx="198" cy="148" rx="25" ry="12"/>
  <!-- 蔬菜 -->
  <ellipse fill="#228B22" cx="110" cy="140" rx="15" ry="8"/>
  <ellipse fill="#DC143C" cx="170" cy="140" rx="10" ry="5"/>
  <!-- 酱料 -->
  <ellipse fill="#F5F5DC" cx="140" cy="150" rx="20" ry="10"/>
  <!-- 标题 -->
  <rect fill="rgba(210,105,30,0.85)" x="10" y="10" width="90" height="25" rx="4"/>
  <text x="55" y="27" text-anchor="middle" fill="white" font-size="12" font-family="sans-serif">土耳其烤肉</text>
</svg>