<svg xmlns="http://www.w3.org/2000/svg" viewBox="0 0 140 110">
  <defs>
    <linearGradient id="bg" x1="0%" y1="0%" x2="100%" y2="100%">
      <stop offset="0%" style="stop-color:#FFF8DC"/>
      <stop offset="100%" style="stop-color:#F5DEB3"/>
    </linearGradient>
  </defs>
  <rect fill="url(#bg)" width="140" height="110" rx="8"/>
  <!-- 烤肉架 -->
  <rect x="20" y="55" width="100" height="5" fill="#696969"/>
  <!-- 烤肉串 -->
  <line x1="30" y1="35" x2="30" y2="75" stroke="#8B4513" stroke-width="3"/>
  <rect x="25" y="40" width="10" height="8" fill="#8B4513" rx="1"/>
  <rect x="25" y="50" width="10" height="8" fill="#A0522D" rx="1"/>
  <rect x="25" y="60" width="10" height="8" fill="#8B4513" rx="1"/>
  
  <line x1="70" y1="35" x2="70" y2="75" stroke="#8B4513" stroke-width="3"/>
  <rect x="65" y="40" width="10" height="8" fill="#A0522D" rx="1"/>
  <rect x="65" y="50" width="10" height="8" fill="#8B4513" rx="1"/>
  <rect x="65" y="60" width="10" height="8" fill="#A0522D" rx="1"/>
  
  <line x1="110" y1="35" x2="110" y2="75" stroke="#8B4513" stroke-width="3"/>
  <rect x="105" y="40" width="10" height="8" fill="#8B4513" rx="1"/>
  <rect x="105" y="50" width="10" height="8" fill="#A0522D" rx="1"/>
  <rect x="105" y="60" width="10" height="8" fill="#8B4513" rx="1"/>
  <text x="70" y="100" text-anchor="middle" fill="#8B4513" font-size="10">土耳其烤肉</text>
</svg>