<svg xmlns="http://www.w3.org/2000/svg" viewBox="0 0 140 110">
  <defs>
    <linearGradient id="bg42" x1="0%" y1="0%" x2="0%" y2="100%">
      <stop offset="0%" style="stop-color:#00ACC1"/>
      <stop offset="100%" style="stop-color:#80DEEA"/>
    </linearGradient>
  </defs>
  <rect fill="url(#bg42)" width="140" height="110"/>
  <!-- 海洋 -->
  <rect fill="#0097A7" x="0" y="50" width="140" height="60"/>
  <!-- 潜水员 -->
  <circle fill="#FFCC80" cx="70" cy="45" r="10"/>
  <!-- 面罩 -->
  <ellipse fill="#4FC3F7" cx="70" cy="45" rx="8" ry="5"/>
  <rect fill="#37474F" x="65" y="43" width="10" height="4"/>
  <!-- 氧气瓶 -->
  <rect fill="#FFD700" x="85" y="35" width="12" height="30" rx="3"/>
  <rect fill="#FFC107" x="87" y="32" width="8" height="5" rx="2"/>
  <!-- 管子 -->
  <path fill="none" stroke="#37474F" stroke-width="2" d="M85,45 Q80,50 75,48"/>
  <!-- 鱼群 -->
  <ellipse fill="#FF9800" cx="35" cy="65" rx="8" ry="5"/>
  <polygon fill="#FF9800" points="27,65 23,62 23,68"/>
  <ellipse fill="#FFEB3B" cx="105" cy="70" rx="7" ry="4"/>
  <polygon fill="#FFEB3B" points="98,70 94,67 94,73"/>
  <ellipse fill="#E91E63" cx="55" cy="80" rx="6" ry="4"/>
  <ellipse fill="#4CAF50" cx="85" cy="85" rx="5" ry="3"/>
  <!-- 气泡 -->
  <circle fill="#FFFFFF" cx="60" cy="50" r="3" opacity="0.6"/>
  <circle fill="#FFFFFF" cx="80" cy="55" r="2" opacity="0.5"/>
  <circle fill="#FFFFFF" cx="65" cy="40" r="2" opacity="0.4"/>
  <rect fill="rgba(0,0,0,0.5)" x="10" y="92" width="50" height="16" rx="2"/>
  <text x="35" y="104" text-anchor="middle" fill="white" font-size="8" font-family="sans-serif">潜水</text>
</svg>
