<svg xmlns="http://www.w3.org/2000/svg" viewBox="0 0 280 200">
  <rect fill="#FFF8E7" width="280" height="200"/>
  <!-- 大碗 -->
  <ellipse fill="#8B4513" cx="140" cy="140" rx="90" ry="40"/>
  <ellipse fill="#A0522D" cx="140" cy="135" rx="80" ry="35"/>
  <!-- 石锅拌饭 -->
  <ellipse fill="#F5DEB3" cx="140" cy="130" rx="70" ry="30"/>
  <!-- 配料 -->
  <ellipse fill="#228B22" cx="100" cy="125" rx="20" ry="10"/>
  <ellipse fill="#FFD700" cx="160" cy="125" rx="20" ry="10"/>
  <ellipse fill="#FF6347" cx="130" cy="120" rx="15" ry="8"/>
  <ellipse fill="#FFA500" cx="180" cy="125" rx="18" ry="9"/>
  <ellipse fill="#8B4513" cx="110" cy="135" rx="12" ry="6"/>
  <!-- 蛋黄 -->
  <ellipse fill="#FFD700" cx="140" cy="125" rx="18" ry="12"/>
  <ellipse fill="#FFFACD" cx="140" cy="123" rx="14" ry="9"/>
  <!-- 辣酱 -->
  <ellipse fill="#DC143C" cx="160" cy="135" rx="10" ry="6"/>
  <!-- 蒸汽 -->
  <path fill="none" stroke="#E0E0E0" stroke-width="2" opacity="0.5" d="M100,100 Q105,85 100,70"/>
  <path fill="none" stroke="#E0E0E0" stroke-width="2" opacity="0.5" d="M140,95 Q145,80 140,65"/>
  <path fill="none" stroke="#E0E0E0" stroke-width="2" opacity="0.5" d="M180,100 Q185,85 180,70"/>
  <!-- 标题 -->
  <rect fill="rgba(220,20,60,0.85)" x="10" y="10" width="70" height="25" rx="4"/>
  <text x="45" y="27" text-anchor="middle" fill="white" font-size="12" font-family="sans-serif">石锅拌饭</text>
</svg>