<svg xmlns="http://www.w3.org/2000/svg" viewBox="0 0 280 200">
  <rect fill="#87CEEB" width="280" height="200"/>
  <!-- 水花 -->
  <ellipse fill="#87CEEB" opacity="0.6" cx="70" cy="140" rx="30" ry="15"/>
  <ellipse fill="#87CEEB" opacity="0.6" cx="210" cy="150" rx="35" ry="18"/>
  <!-- 人们泼水 -->
  <ellipse fill="#DEB887" cx="80" cy="100" rx="10" ry="12"/>
  <path fill="#DC143C" d="M70,112 L90,112 L95,170 L65,170 Z"/>
  <!-- 水桶 -->
  <ellipse fill="#4169E1" cx="60" cy="130" rx="12" ry="8"/>
  <path fill="none" stroke="#4169E1" stroke-width="3" d="M60,130 Q70,100 90,110"/>
  <ellipse fill="#DEB887" cx="200" cy="105" rx="10" ry="12"/>
  <path fill="#4169E1" d="M190,117 L210,117 L215,175 L185,175 Z"/>
  <!-- 水枪 -->
  <rect fill="#4169E1" x="215" y="120" width="30" height="8"/>
  <path fill="none" stroke="#87CEEB" stroke-width="3" d="M245,124 Q260,110 255,90"/>
  <!-- 水滴 -->
  <ellipse fill="#87CEEB" cx="130" cy="80" rx="5" ry="8"/>
  <ellipse fill="#87CEEB" cx="150" cy="90" rx="5" ry="8"/>
  <ellipse fill="#87CEEB" cx="170" cy="85" rx="5" ry="8"/>
  <!-- 太阳 -->
  <circle fill="#FFD700" cx="230" cy="40" r="20"/>
  <!-- 标题 -->
  <rect fill="rgba(65,105,225,0.85)" x="10" y="175" width="90" height="22" rx="4"/>
  <text x="55" y="190" text-anchor="middle" fill="white" font-size="11" font-family="sans-serif">泼水节</text>
</svg>